HIERARCHY
ROOT Hips
{
  OFFSET 52.9116 95.9707 5.10108
  CHANNELS 6 Xposition Yposition Zposition Zrotation Xrotation Yrotation
  JOINT spine
  {
    OFFSET 0 8.13249 0.467659
    CHANNELS 3 Zrotation Xrotation Yrotation
    JOINT spine1
    {
      OFFSET 0 10.3498 0
      CHANNELS 3 Zrotation Xrotation Yrotation
      JOINT spine2
      {
        OFFSET 0 9.91699 0
        CHANNELS 3 Zrotation Xrotation Yrotation
        JOINT Neck
        {
          OFFSET 0 25.461 1.2139
          CHANNELS 3 Zrotation Xrotation Yrotation
          JOINT Head
          {
            OFFSET 0 7.69245 0
            CHANNELS 3 Zrotation Xrotation Yrotation
            End Site
            {
              OFFSET 0 18.62 -6.14063
            }
          }
        }
        JOINT RightShoulder
        {
          OFFSET -4.17575 10.7096 -0.581445
          CHANNELS 3 Zrotation Xrotation Yrotation
          JOINT RightArm
          {
            OFFSET 0 14.0466 0
            CHANNELS 3 Zrotation Xrotation Yrotation
            JOINT RightArmRoll
            {
              OFFSET 0 7.09098 0
              CHANNELS 3 Zrotation Xrotation Yrotation
              JOINT RightForeArm
              {
                OFFSET 0 20.6535 0
                CHANNELS 3 Zrotation Xrotation Yrotation
                JOINT RightForeArmRoll
                {
                  OFFSET 0 7.95718 0
                  CHANNELS 3 Zrotation Xrotation Yrotation
                  JOINT RightHand
                  {
                    OFFSET 0 15.9683 0
                    CHANNELS 3 Zrotation Xrotation Yrotation
                    End Site
                    {
                      OFFSET 0 0 0
                    }
                  }
                }
              }
            }
          }
        }
        JOINT LeftShoulder
        {
          OFFSET 4.17575 10.7096 -0.581445
          CHANNELS 3 Zrotation Xrotation Yrotation
          JOINT LeftArm
          {
            OFFSET 0 14.0466 0
            CHANNELS 3 Zrotation Xrotation Yrotation
            JOINT LeftArmRoll
            {
              OFFSET 0 7.09098 0
              CHANNELS 3 Zrotation Xrotation Yrotation
              JOINT LeftForeArm
              {
                OFFSET 0 20.6535 0
                CHANNELS 3 Zrotation Xrotation Yrotation
                JOINT LeftForeArmRoll
                {
                  OFFSET 0 7.95718 0
                  CHANNELS 3 Zrotation Xrotation Yrotation
                  JOINT LeftHand
                  {
                    OFFSET 0 15.9683 0
                    CHANNELS 3 Zrotation Xrotation Yrotation
                    End Site
                    {
                      OFFSET 0 0 0
                    }
                  }
                }
              }
            }
          }
        }
      }
    }
  }
  JOINT RightUpLeg
  {
    OFFSET -7.20834 -1.32182 -1.10884
    CHANNELS 3 Zrotation Xrotation Yrotation
    JOINT RightUpLegRoll
    {
      OFFSET 0 18.7238 0
      CHANNELS 3 Zrotation Xrotation Yrotation
      JOINT RightLeg
      {
        OFFSET 0 -23.1866 0
        CHANNELS 3 Zrotation Xrotation Yrotation
        JOINT RightLegRoll
        {
          OFFSET 0 23.2624 0
          CHANNELS 3 Zrotation Xrotation Yrotation
          JOINT RightFoot
          {
            OFFSET 0 19.3621 0
            CHANNELS 3 Zrotation Xrotation Yrotation
            JOINT RightToeBase
            {
              OFFSET 0 16.1857 0
              CHANNELS 3 Zrotation Xrotation Yrotation
              End Site
              {
                OFFSET 0.00686052 7.83863 -0.903522
              }
            }
          }
        }
      }
    }
  }
  JOINT LeftUpLeg
  {
    OFFSET 7.20834 -1.32182 -1.10884
    CHANNELS 3 Zrotation Xrotation Yrotation
    JOINT LeftUpLegRoll
    {
      OFFSET 0 18.7239 0
      CHANNELS 3 Zrotation Xrotation Yrotation
      JOINT LeftLeg
      {
        OFFSET 0 23.1865 0
        CHANNELS 3 Zrotation Xrotation Yrotation
        JOINT LeftLegRoll
        {
          OFFSET 0 23.4775 0
          CHANNELS 3 Zrotation Xrotation Yrotation
          JOINT LeftFoot
          {
            OFFSET 0 19.147 0
            CHANNELS 3 Zrotation Xrotation Yrotation
            JOINT LeftToeBase
            {
              OFFSET 0 16.1857 0
              CHANNELS 3 Zrotation Xrotation Yrotation
              End Site
              {
                OFFSET -0.0307459 7.83863 -0.903521
              }
            }
          }
        }
      }
    }
  }
}
MOTION
Frames: 8
Frame Time: 0.00208333
52.9092 89.4653 5.09588 0.216591 6.54085 0.722179 0.622875 1.51402 0.196823 1.24605 7.03219 0.296202 1.24547 8.67707 0.275634 -11.212 -3.9866 -6.39969 7.11078 -2.98588 -6.90959 44.2026 -9.80514 -6.00071 118.056 3.83538 -9.69667 2.43549e-007 -8.43552e-008 -1.60061e-006 22.5572 35.5237 -7.00005 -6.27722e-006 5.03644e-006 -3 8.029 -4.95147 0.697688 -58.6928 -6.80621 4.22132 -109.872 -2.06107 20.9289 -2.98484e-006 -2.91131e-006 7.19066e-006 -11.2438 51.4087 2.87446 4.92078e-006 -2.37759e-006 3 -8.02901 -4.95145 -0.69767 174.028 28.5417 4.92279 180 7.01583e-015 179.095 176.663 48.6876 -179.445 -2.45166e-006 -6.74666e-007 1.49962 -72.462 83.4181 75.1067 8.18789 26.411 -2.25976 -171.545 28.8948 -5.98937 4.5067e-006 -1.99009e-005 -0.890597 -3.93965 -50.7053 -1.49144 1.74172e-006 1.23339e-006 -1.80214 61.9396 82.8995 -64.688 -8.17096 27.3517 0.843197 
52.9429 89.2292 5.21047 0.24535 6.46286 0.762481 0.630307 1.54462 0.20919 1.26049 7.09352 0.319537 1.25969 8.73839 0.298767 -11.152 -4.09975 -6.45571 6.9751 -3.0429 -6.96453 44.4101 -9.87846 -6.06066 118.111 4.31029 -9.4551 2.43549e-007 -8.43552e-008 -1.60061e-006 22.5161 35.1112 -6.95528 -6.27722e-006 5.03644e-006 -3 8.029 -4.95147 0.697688 -58.9134 -6.66514 4.13766 -110.069 -1.45978 20.7186 -2.98484e-006 -2.91131e-006 7.19066e-006 -11.304 51.1668 2.96073 4.92078e-006 -2.37759e-006 3 -8.02901 -4.95145 -0.69767 173.916 28.8108 5.04648 180 7.01583e-015 179.095 176.635 49.5389 -179.398 -2.45166e-006 -6.74663e-007 1.54243 -78.7532 83.6111 81.4638 8.17579 26.1376 -2.2501 -171.547 29.1683 -6.05181 4.5067e-006 -1.99009e-005 -0.894756 -3.94092 -51.5369 -1.54216 1.74172e-006 1.23339e-006 -1.86362 66.7397 83.1959 -69.5748 -8.16943 27.1827 0.875894 
53.0413 88.8942 5.17941 0.26222 6.3929 0.811265 0.635497 1.57367 0.220339 1.27048 7.15172 0.34079 1.26947 8.79659 0.319889 -11.0347 -4.21716 -6.51209 6.81983 -3.09781 -7.01639 44.6725 -9.94637 -6.1154 118.132 4.79715 -9.23433 2.43549e-007 -8.43552e-008 -1.60061e-006 22.4649 34.7896 -6.93014 -6.27722e-006 5.03644e-006 -3 8.029 -4.95147 0.697688 -59.0859 -6.53847 4.06231 -110.303 -0.829154 20.4859 -2.98484e-006 -2.91131e-006 7.19066e-006 -11.3714 50.8722 3.04783 4.92078e-006 -2.37759e-006 3 -8.02901 -4.95145 -0.69767 173.817 29.0835 5.1709 180 7.01583e-015 179.095 176.586 50.3554 -179.341 -2.45166e-006 -6.74661e-007 1.57908 -84.6401 83.7154 87.4095 8.16711 25.9368 -2.25299 -171.545 29.4541 -6.12314 4.5067e-006 -1.99009e-005 -0.899445 -3.9466 -52.3523 -1.59173 1.74172e-006 1.23338e-006 -1.92138 71.365 83.4184 -74.2827 -8.168 27.0573 0.895415 
53.1224 88.6063 5.09201 0.270809 6.32677 0.869079 0.63858 1.60244 0.231379 1.27624 7.20938 0.362153 1.275 8.85424 0.341194 -10.8551 -4.34563 -6.57197 6.63175 -3.14659 -7.06895 44.9945 -10.0147 -6.16992 118.112 5.29776 -9.03573 2.43549e-007 -8.43552e-008 -1.60061e-006 22.3999 34.5566 -6.92135 -6.27722e-006 5.03644e-006 -3 8.029 -4.95147 0.697688 -59.2202 -6.42181 3.99251 -110.566 -0.157941 20.229 -2.98484e-006 -2.91131e-006 7.19066e-006 -11.4475 50.5266 3.13804 4.92078e-006 -2.37759e-006 3 -8.02901 -4.95145 -0.69767 173.724 29.3583 5.30002 180 7.01584e-015 179.096 176.513 51.1483 -179.272 -2.45166e-006 -6.74659e-007 1.6104 -90.2985 83.752 93.1218 8.16013 25.7724 -2.27017 -171.542 29.7498 -6.19844 4.5067e-006 -1.99009e-005 -0.90463 -3.95359 -53.1588 -1.64146 1.74172e-006 1.23338e-006 -1.97752 75.9557 83.587 -78.9554 -8.16658 26.9486 0.909332 
53.0633 88.2685 5.0756 0.271929 6.2642 0.934723 0.639874 1.63089 0.24224 1.27841 7.26639 0.38344 1.27694 8.91124 0.362484 -10.6222 -4.48337 -6.63473 6.4163 -3.18997 -7.12188 45.3673 -10.0833 -6.22408 118.06 5.8101 -8.85783 2.43549e-007 -8.43552e-008 -1.60061e-006 22.322 34.4029 -6.92674 -6.27722e-006 5.03644e-006 -3 8.029 -4.95147 0.697688 -59.3208 -6.31396 3.92763 -110.855 0.549234 19.9522 -2.98484e-006 -2.91131e-006 7.19066e-006 -11.5302 50.1361 3.23018 4.92078e-006 -2.37759e-006 3 -8.02901 -4.95145 -0.69767 173.638 29.6352 5.43273 180 7.01584e-015 179.098 176.419 51.9187 -179.191 -2.45166e-006 -6.74657e-007 1.63709 -95.6117 83.7315 98.4845 8.15466 25.6423 -2.29934 -171.539 30.0541 -6.27738 4.5067e-006 -1.99009e-005 -0.910268 -3.96158 -53.9551 -1.69105 1.74172e-006 1.23338e-006 -2.03204 80.4349 83.7071 -83.5157 -8.16525 26.8567 0.918323 
53.0807 88.013 5.05818 0.266387 6.20495 1.007 0.639698 1.65895 0.252856 1.27763 7.32262 0.404465 1.27592 8.96748 0.383561 -10.3447 -4.62861 -6.69973 6.17889 -3.22868 -7.17486 45.7815 -10.1518 -6.27775 117.982 6.33213 -8.69916 2.43549e-007 -8.43552e-008 -1.60061e-006 22.2322 34.3192 -6.94428 -6.27722e-006 5.03644e-006 -3 8.029 -4.95147 0.697688 -59.3923 -6.21374 3.86708 -111.163 1.28765 19.6594 -2.98484e-006 -2.91131e-006 7.19066e-006 -11.6175 49.7065 3.32315 4.92078e-006 -2.37759e-006 3 -8.02901 -4.95145 -0.69767 173.556 29.9143 5.56791 180 7.01584e-015 179.1 176.308 52.668 -179.1 -2.45166e-006 -6.74655e-007 1.65986 -100.5 83.6653 103.418 8.15054 25.5444 -2.33825 -171.536 30.3658 -6.35961 4.5067e-006 -1.99009e-005 -0.916313 -3.97023 -54.7402 -1.74019 1.74172e-006 1.23338e-006 -2.08493 84.7327 83.7847 -87.8935 -8.16406 26.7814 0.92306 
53.061 87.6835 5.01524 0.254983 6.14876 1.0847 0.63837 1.68657 0.263158 1.27453 7.37798 0.425042 1.27259 9.02284 0.40423 -10.0318 -4.77957 -6.76635 5.92494 -3.26343 -7.22757 46.2282 -10.2201 -6.33081 117.886 6.86181 -8.55826 2.43549e-007 -8.43552e-008 -1.60061e-006 22.1318 34.2963 -6.97209 -6.27722e-006 5.03644e-006 -3 8.029 -4.95147 0.697688 -59.4394 -6.11997 3.81024 -111.485 2.05247 19.3547 -2.98484e-006 -2.91131e-006 7.19066e-006 -11.7075 49.2437 3.41593 4.92078e-006 -2.37759e-006 3 -8.02901 -4.95145 -0.69767 173.48 30.1955 5.70444 180 7.01585e-015 179.102 176.183 53.3974 -179.002 -2.45166e-006 -6.74654e-007 1.67941 -104.921 83.5644 107.881 8.1477 25.4766 -2.38465 -171.531 30.6834 -6.44477 4.5067e-006 -1.99009e-005 -0.922722 -3.97916 -55.5132 -1.78852 1.74172e-006 1.23338e-006 -2.13618 88.7925 83.8261 -92.032 -8.16304 26.7228 0.924208 
53.0407 87.4373 5.02214 0.238511 6.09538 1.16664 0.636209 1.7137 0.273077 1.26978 7.43235 0.444984 1.2676 9.0772 0.424291 -9.6923 -4.93449 -6.83395 5.65989 -3.29496 -7.27969 46.6982 -10.2878 -6.38313 117.778 7.39714 -8.43365 2.43549e-007 -8.43552e-008 -1.60061e-006 22.0219 34.3248 -7.00831 -6.27722e-006 5.03644e-006 -3 8.029 -4.95147 0.697688 -59.4667 -6.03147 3.75651 -111.817 2.83876 19.0418 -2.98484e-006 -2.91131e-006 7.19066e-006 -11.7983 48.7538 3.50756 4.92078e-006 -2.37759e-006 3 -8.02901 -4.95145 -0.69767 173.408 30.4791 5.84116 180 7.01585e-015 179.104 176.048 54.1081 -178.898 -2.45166e-006 -6.74654e-007 1.69645 -108.863 83.4394 111.863 8.14607 25.4368 -2.43631 -171.526 31.0057 -6.53251 4.5067e-006 -1.99009e-005 -0.92945 -3.98796 -56.2728 -1.83565 1.74172e-006 1.23338e-006 -2.18578 92.5724 83.8379 -95.889 -8.16224 26.6808 0.922429 
